<svg xmlns="http://www.w3.org/2000/svg" fill-rule="evenodd" stroke-width=".501" stroke-linejoin="bevel" overflow="visible" viewBox="0 0 121.5 121.5"><g fill="none" stroke-miterlimit="79.84" stroke-linejoin="round" stroke-linecap="round" font-family="Times New Roman" font-size="16"><path fill="#c8d200" stroke-width=".333" d="M9.65 29.304C27.01 1.1 63.99-7.706 92.196 9.652c28.205 17.357 37.01 54.338 19.652 82.544-17.357 28.205-54.338 37.01-82.544 19.652C1.098 94.49-7.706 57.51 9.65 29.304z"/><path fill="#fff" fill-rule="nonzero" stroke-width=".21" d="M43.163 59.525c3.3-.032 6.164-.743 8.593-2.138 2.425-1.396 4.306-3.297 5.634-5.706 1.332-2.41 2.007-5.14 2.024-8.21-.017-3.1-.692-5.89-2.024-8.36-1.328-2.47-3.214-4.43-5.636-5.88-2.428-1.45-5.292-2.19-8.596-2.22-3.266.03-6.11.77-8.523 2.22-2.413 1.45-4.284 3.41-5.614 5.88-1.32 2.47-2 5.26-2.02 8.37.02 3.07.7 5.81 2.02 8.22 1.33 2.41 3.21 4.31 5.62 5.708 2.42 1.395 5.26 2.106 8.53 2.138zm.955 33.8l40.82-65.35h-7.254l-40.74 65.35h7.174zm34.14 1.172c3.267-.03 6.114-.75 8.54-2.163 2.425-1.41 4.31-3.327 5.656-5.75 1.343-2.426 2.025-5.172 2.046-8.245-.02-3.1-.703-5.89-2.046-8.37-1.345-2.47-3.23-4.44-5.655-5.88-2.43-1.45-5.28-2.19-8.55-2.22-3.27.03-6.11.77-8.52 2.22-2.41 1.44-4.28 3.4-5.61 5.88-1.33 2.47-2.01 5.26-2.02 8.36.01 3.07.68 5.82 2.02 8.24 1.33 2.42 3.2 4.34 5.61 5.75 2.41 1.41 5.25 2.13 8.52 2.16zm-35.095-42.6c-1.45-.01-2.74-.36-3.872-1.054-1.13-.692-2.02-1.664-2.68-2.926-.65-1.26-.99-2.743-1-4.453.01-1.835.35-3.405 1-4.7.66-1.3 1.55-2.295 2.69-2.984 1.13-.686 2.43-1.036 3.88-1.04 1.48.004 2.788.354 3.92 1.04 1.128.69 2.02 1.683 2.66 2.983.643 1.296.97 2.866.98 4.7-.01 1.71-.337 3.194-.98 4.454-.64 1.262-1.532 2.234-2.66 2.926-1.132.694-2.436 1.044-3.917 1.054zm35.094 34.975c-1.477-.01-2.777-.36-3.907-1.043-1.13-.69-2.016-1.67-2.658-2.94-.642-1.27-.966-2.8-.977-4.56.01-1.81.335-3.36.977-4.66.642-1.3 1.528-2.3 2.658-3 1.13-.7 2.43-1.06 3.907-1.07 1.476.01 2.786.36 3.93 1.06 1.146.7 2.048 1.7 2.702 3 .65 1.3.99 2.852 1 4.66-.01 1.765-.35 3.29-1.01 4.56-.66 1.27-1.56 2.243-2.7 2.93-1.15.68-2.46 1.024-3.93 1.03v.01z"/></g></svg>